HIERARCHY
ROOT hip
{
  OFFSET 0 0 0
  CHANNELS 6 Xposition Yposition Zposition Zrotation Yrotation Xrotation
  JOINT abdomen
  {
    OFFSET 0 20.6881 -0.73152
    CHANNELS 3 Zrotation Xrotation Yrotation
    JOINT chest
    {
      OFFSET 0 11.7043 -0.48768
      CHANNELS 3 Zrotation Xrotation Yrotation
      JOINT neck
      {
        OFFSET 0 22.1894 -2.19456
        CHANNELS 3 Zrotation Xrotation Yrotation
        JOINT head
        {
          OFFSET -0.24384 7.07133 1.2192
          CHANNELS 3 Zrotation Xrotation Yrotation
          JOINT leftEye
          {
            OFFSET 4.14528 8.04674 8.04672
            CHANNELS 3 Zrotation Xrotation Yrotation
            End Site
            {
              OFFSET 1 0 0
            }
          }
          JOINT rightEye
          {
            OFFSET -3.6576 8.04674 8.04672
            CHANNELS 3 Zrotation Xrotation Yrotation
            End Site
            {
              OFFSET 1 0 0
            }
          }
        }
      }
      JOINT rCollar
      {
        OFFSET -2.68224 19.2634 -4.8768
        CHANNELS 3 Zrotation Xrotation Yrotation
        JOINT rShldr
        {
          OFFSET -8.77824 -1.95073 1.46304
          CHANNELS 3 Zrotation Xrotation Yrotation
          JOINT rForeArm
          {
            OFFSET -28.1742 -1.7115 0.48768
            CHANNELS 3 Zrotation Xrotation Yrotation
            JOINT rHand
            {
              OFFSET -22.5879 0.773209 7.07136
              CHANNELS 3 Zrotation Xrotation Yrotation
              JOINT rThumb1
              {
                OFFSET -1.2192 -0.487915 3.41376
                CHANNELS 3 Zrotation Xrotation Yrotation
                JOINT rThumb2
                {
                  OFFSET -3.37035 -0.52449 3.41376
                  CHANNELS 3 Zrotation Xrotation Yrotation
                  End Site
                  {
                    OFFSET -1.78271 -1.18214 1.43049
                  }
                }
              }
              JOINT rIndex1
              {
                OFFSET -7.75947 0.938293 5.60832
                CHANNELS 3 Zrotation Xrotation Yrotation
                JOINT rIndex2
                {
                  OFFSET -2.54057 -0.884171 1.56538
                  CHANNELS 3 Zrotation Xrotation Yrotation
                  End Site
                  {
                    OFFSET -1.62519 -0.234802 1.16502
                  }
                }
              }
              JOINT rMid1
              {
                OFFSET -8.24714 1.18213 3.41376
                CHANNELS 3 Zrotation Xrotation Yrotation
                JOINT rMid2
                {
                  OFFSET -3.10165 -0.590103 1.0647
                  CHANNELS 3 Zrotation Xrotation Yrotation
                  End Site
                  {
                    OFFSET -2.48547 -0.328903 0.83742
                  }
                }
              }
              JOINT rRing1
              {
                OFFSET -8.82822 0.546677 1.51678
                CHANNELS 3 Zrotation Xrotation Yrotation
                JOINT rRing2
                {
                  OFFSET -2.60934 -0.819778 -0.0198488
                  CHANNELS 3 Zrotation Xrotation Yrotation
                  End Site
                  {
                    OFFSET -2.33842 -0.294052 0.168128
                  }
                }
              }
              JOINT rPinky1
              {
                OFFSET -8.27202 -0.0477905 -0.4584
                CHANNELS 3 Zrotation Xrotation Yrotation
                JOINT rPinky2
                {
                  OFFSET -1.82734 -0.647385 -0.700984
                  CHANNELS 3 Zrotation Xrotation Yrotation
                  End Site
                  {
                    OFFSET -1.69225 -0.51767 -0.607171
                  }
                }
              }
            }
          }
        }
      }
      JOINT lCollar
      {
        OFFSET 2.68224 19.2634 -4.8768
        CHANNELS 3 Zrotation Xrotation Yrotation
        JOINT lShldr
        {
          OFFSET 8.77824 -1.95073 1.46304
          CHANNELS 3 Zrotation Xrotation Yrotation
          JOINT lForeArm
          {
            OFFSET 28.1742 -1.7115 0.48768
            CHANNELS 3 Zrotation Xrotation Yrotation
            JOINT lHand
            {
              OFFSET 22.5879 0.773209 7.07136
              CHANNELS 3 Zrotation Xrotation Yrotation
              JOINT lThumb1
              {
                OFFSET 1.2192 -0.487915 3.41376
                CHANNELS 3 Zrotation Xrotation Yrotation
                JOINT lThumb2
                {
                  OFFSET 3.37035 -0.52449 3.41376
                  CHANNELS 3 Zrotation Xrotation Yrotation
                  End Site
                  {
                    OFFSET 1.78271 -1.18214 1.43049
                  }
                }
              }
              JOINT lIndex1
              {
                OFFSET 7.75947 0.938293 5.60832
                CHANNELS 3 Zrotation Xrotation Yrotation
                JOINT lIndex2
                {
                  OFFSET 2.54057 -0.884171 1.56538
                  CHANNELS 3 Zrotation Xrotation Yrotation
                  End Site
                  {
                    OFFSET 1.62519 -0.234802 1.16502
                  }
                }
              }
              JOINT lMid1
              {
                OFFSET 8.24714 1.18213 3.41376
                CHANNELS 3 Zrotation Xrotation Yrotation
                JOINT lMid2
                {
                  OFFSET 3.10165 -0.590103 1.0647
                  CHANNELS 3 Zrotation Xrotation Yrotation
                  End Site
                  {
                    OFFSET 2.48547 -0.328903 0.83742
                  }
                }
              }
              JOINT lRing1
              {
                OFFSET 8.82822 0.546677 1.51678
                CHANNELS 3 Zrotation Xrotation Yrotation
                JOINT lRing2
                {
                  OFFSET 2.60934 -0.819778 -0.0198488
                  CHANNELS 3 Zrotation Xrotation Yrotation
                  End Site
                  {
                    OFFSET 2.33842 -0.294052 0.168128
                  }
                }
              }
              JOINT lPinky1
              {
                OFFSET 8.27202 -0.0477905 -0.4584
                CHANNELS 3 Zrotation Xrotation Yrotation
                JOINT lPinky2
                {
                  OFFSET 1.82734 -0.647385 -0.700984
                  CHANNELS 3 Zrotation Xrotation Yrotation
                  End Site
                  {
                    OFFSET 1.69225 -0.51767 -0.607171
                  }
                }
              }
            }
          }
        }
      }
    }
  }
  JOINT rButtock
  {
    OFFSET -8.77824 4.35084 1.2192
    CHANNELS 3 Zrotation Xrotation Yrotation
    JOINT rThigh
    {
      OFFSET 0 -1.70687 -2.19456
      CHANNELS 3 Zrotation Xrotation Yrotation
      JOINT rShin
      {
        OFFSET 0 -36.8199 0.73152
        CHANNELS 3 Zrotation Xrotation Yrotation
        JOINT rFoot
        {
          OFFSET 0.73152 -45.1104 -5.12064
          CHANNELS 3 Zrotation Xrotation Yrotation
          End Site
          {
            OFFSET -1.1221 -3.69964 12.103
          }
        }
      }
    }
  }
  JOINT lButtock
  {
    OFFSET 8.77824 4.35084 1.2192
    CHANNELS 3 Zrotation Xrotation Yrotation
    JOINT lThigh
    {
      OFFSET 0 -1.70687 -2.19456
      CHANNELS 3 Zrotation Xrotation Yrotation
      JOINT lShin
      {
        OFFSET 0 -36.8199 0.73152
        CHANNELS 3 Zrotation Xrotation Yrotation
        JOINT lFoot
        {
          OFFSET -0.73152 -45.1104 -5.12064
          CHANNELS 3 Zrotation Xrotation Yrotation
          End Site
          {
            OFFSET 1.1221 -3.69964 12.103
          }
        }
      }
    }
  }
}
MOTION
Frames:	4
Frame Time:	0.00833333
65.9707 42.2456 13.9508 185.536 -33.1675 178.834 -7.61146 54.5711 12.5131 -7.9474 -9.86804 -0.437444 -8.55616 18.0708 24.5139 -27.2778 -16.2636 41.559 -0.0 0.0 0.0 -0.0 0.0 0.0 3.9447e-13 -1.77503e-13 -3.57287e-13 30.1018 12.0717 32.5283 -19.3493 -12.2148 37.123 -0.0131649 -3.19685 -0.449771 -1.2468e-09 -8.51563e-09 1.74284e-09 -2.17058e-09 -1.47504e-08 3.01743e-09 -1.24679e-09 -8.51563e-09 1.74283e-09 7.73091 5.47488 0.417314 -1.2468e-09 -8.51564e-09 1.74283e-09 2.90554 0.965183 0.102902 -1.2468e-09 -8.51564e-09 1.74284e-09 10.2786 0.731801 0.0259123 -1.24681e-09 -8.51563e-09 1.74285e-09 2.22167 -0.733487 -0.20892 3.94362e-13 -1.77526e-13 -3.57486e-13 -72.1309 -3.85881 -29.668 27.3048 -27.4191 -63.1597 0.193657 -12.2338 1.74729 2.61072e-09 -7.13122e-10 -1.26162e-09 4.52632e-09 -1.2378e-09 -2.17589e-09 2.61072e-09 -7.13118e-10 -1.26162e-09 -7.73091 5.47488 -0.417314 2.61072e-09 -7.1312e-10 -1.26162e-09 -2.90554 0.965183 -0.102902 2.61071e-09 -7.13117e-10 -1.26162e-09 -10.2786 0.731801 -0.0259123 2.61072e-09 -7.13114e-10 -1.26162e-09 -2.22167 -0.733487 0.20892 -2.03217e-16 0.0 -3.88251e-19 -38.5608 -47.4964 -12.6551 -177.526 76.6401 -175.626 3.57429 -12.5735 -12.5386 2.03217e-16 0.0 3.88251e-19 68.065 -65.2585 39.7944 166.683 87.3149 -171.436 -6.45907 -0.971599 -18.9427
65.5648 41.8571 13.782 184.933 -33.6785 179.393 -8.33285 54.3073 11.5506 -7.42072 -10.0733 -0.716 -9.2989 18.4382 25.0165 -27.0787 -17.3382 42.2174 -0.0 0.0 0.0 -0.0 0.0 0.0 9.08686e-13 -2.20697e-13 -8.91491e-13 29.8578 12.1834 33.3885 -19.4696 -12.3586 37.4086 -0.0145851 -3.42616 -0.482096 -1.16916e-09 -1.48068e-08 3.32127e-09 -2.04775e-09 -2.56461e-08 5.75032e-09 -1.16916e-09 -1.48068e-08 3.32127e-09 7.73091 5.47488 0.417314 -1.16916e-09 -1.48068e-08 3.32127e-09 2.90554 0.965183 0.102902 -1.16916e-09 -1.48068e-08 3.32128e-09 10.2786 0.731801 0.0259123 -1.16917e-09 -1.48068e-08 3.32129e-09 2.22167 -0.733487 -0.20892 9.08617e-13 -2.20704e-13 -8.91689e-13 -72.3268 -4.18224 -30.1121 27.2719 -27.2943 -62.9526 0.175791 -11.787 1.68093 5.06638e-09 -1.20758e-09 -2.26607e-09 8.78124e-09 -2.09752e-09 -3.90324e-09 5.06638e-09 -1.20758e-09 -2.26607e-09 -7.73091 5.47488 -0.417314 5.06638e-09 -1.20758e-09 -2.26607e-09 -2.90554 0.965183 -0.102902 5.06638e-09 -1.20758e-09 -2.26607e-09 -10.2786 0.731801 -0.0259123 5.06638e-09 -1.20758e-09 -2.26607e-09 -2.22167 -0.733487 0.20892 -2.03217e-16 0.0 -3.88251e-19 -41.0724 -48.4224 -14.435 -177.583 76.2817 -175.534 3.51173 -13.4739 -11.904 2.03217e-16 0.0 3.88251e-19 67.0045 -65.582 39.7319 167.045 87.2204 -171.76 -6.71369 -1.60319 -19.4975
64.9735 41.4729 13.6734 183.789 -34.2715 179.96 -9.06058 54.0755 10.7743 -6.92813 -10.2719 -0.95292 -10.0542 18.9011 25.4771 -26.9551 -18.4717 42.723 -0.0 0.0 0.0 -0.0 0.0 0.0 1.20544e-12 -2.38542e-13 -1.20533e-12 29.6459 12.2396 34.1597 -19.6003 -12.5173 37.7182 -0.0159254 -3.60047 -0.506687 -9.38203e-10 -1.80437e-08 4.20553e-09 -1.65447e-09 -3.12525e-08 7.28139e-09 -9.38198e-10 -1.80437e-08 4.20552e-09 7.73091 5.47488 0.417314 -9.38204e-10 -1.80437e-08 4.20552e-09 2.90554 0.965183 0.102902 -9.38194e-10 -1.80437e-08 4.20553e-09 10.2786 0.731801 0.0259123 -9.38207e-10 -1.80437e-08 4.20554e-09 2.22167 -0.733487 -0.20892 1.2054e-12 -2.38542e-13 -1.20553e-12 -72.1947 -4.48913 -30.5242 27.2278 -27.1303 -62.6809 0.16655 -11.553 1.64626 6.42724e-09 -1.48091e-09 -2.75155e-09 1.11385e-08 -2.57288e-09 -4.73747e-09 6.42724e-09 -1.48091e-09 -2.75154e-09 -7.73091 5.47488 -0.417314 6.42724e-09 -1.48091e-09 -2.75155e-09 -2.90554 0.965183 -0.102902 6.42723e-09 -1.48091e-09 -2.75155e-09 -10.2786 0.731801 -0.0259123 6.42724e-09 -1.48091e-09 -2.75155e-09 -2.22167 -0.733487 0.20892 -2.03217e-16 0.0 -3.88251e-19 -43.4065 -49.4329 -16.1351 -177.602 76.1348 -175.51 3.42737 -14.3246 -11.4197 2.03217e-16 0.0 3.88251e-19 65.8521 -65.7959 39.7264 167.05 87.1682 -171.663 -7.09023 -2.66359 -19.8637
64.4475 41.1469 13.5616 182.819 -34.7585 180.433 -9.89517 53.8698 10.3048 -6.43689 -10.459 -1.12715 -10.8096 19.5094 25.8798 -27.0048 -19.6996 43.0087 -0.0 0.0 0.0 -0.0 0.0 0.0 1.18532e-12 -2.17256e-13 -1.19958e-12 29.529 12.2084 34.7646 -19.757 -12.7107 38.0884 -0.016649 -3.65043 -0.513756 -3.87414e-10 -1.66836e-08 4.07743e-09 -7.00197e-10 -2.88981e-08 7.05986e-09 -3.8741e-10 -1.66836e-08 4.07742e-09 7.73091 5.47488 0.417314 -3.87416e-10 -1.66836e-08 4.07742e-09 2.90554 0.965183 0.102902 -3.87406e-10 -1.66836e-08 4.07743e-09 10.2786 0.731801 0.0259123 -3.87419e-10 -1.66836e-08 4.07744e-09 2.22167 -0.733487 -0.20892 1.18528e-12 -2.17262e-13 -1.19978e-12 -71.6089 -4.76866 -30.8981 27.1648 -26.9033 -62.3136 0.169738 -11.6632 1.6624 6.19201e-09 -1.44205e-09 -2.43025e-09 1.07289e-08 -2.50564e-09 -4.18299e-09 6.19201e-09 -1.44204e-09 -2.43024e-09 -7.73091 5.47488 -0.417314 6.19201e-09 -1.44204e-09 -2.43025e-09 -2.90554 0.965183 -0.102902 6.19201e-09 -1.44204e-09 -2.43024e-09 -10.2786 0.731801 -0.0259123 6.19201e-09 -1.44204e-09 -2.43024e-09 -2.22167 -0.733487 0.20892 -2.03217e-16 0.0 -3.88251e-19 -45.6704 -50.5942 -17.8309 -177.578 76.2016 -175.55 3.29294 -15.1326 -11.1739 2.03217e-16 0.0 3.88251e-19 64.3793 -65.8106 39.7528 166.203 87.2405 -170.593 -7.68806 -4.52525 -19.9266
